# xmcd
#
# Track frame offsets:
#	150
#	900
#	18161
#	30296
#	47073
#	64358
#	76699
#	96113
#	108620
#	124491
#	142913
#	157460
#	174494
#	190612
#	207429
#	222719
#	235811
#	250980
#	265578
#	282957
#	297697
#	313736
#
# Disc length: 4376 seconds
#
# Revision: 0
# Processed by: cddbd v1.5.2PL0 Copyright (c) Steve Scherf et al.
# Submitted via: audiograbber 1.83.01
#
DISCID=41111616
DTITLE=Сборник - Музыкайф 50/50 (Europa Plus)
DYEAR=2006
DGENRE=Pop
TTITLE0=Радио Европа Плюс - Intro
TTITLE1=Karmah - Just Be Good To Me (every Breath You Take)
TTITLE2=Тутси - Незамужняя
TTITLE3=Royal Gigolos - Tell it to my Heart (Radio edit)
TTITLE4=Тимати и Алекса - Когда ты рядом
TTITLE5=Madonna - History
TTITLE6=Виа-Гра - Цветок и нож
TTITLE7=Supermode - Tell Me Why (Radio Edit)
TTITLE8=Е.Терлеева - Солнце
TTITLE9=Bob Sinclar - Rock This Party (Everybody Dan
TTITLE10=Т.Буланова - Притяжение
TTITLE11=dr.Alban - Chiki chiki - feat Star club
TTITLE12=Ассорти - Нон-стоп любовь
TTITLE13=Reamonn - Tonight (Jam El Mar Remix)
TTITLE14=Ирина Дубцова -  Ветра
TTITLE15=Holly Dolly - Dolly Song
TTITLE16=Глюкоза - Сашок
TTITLE17=Arash feat Rebecca - Mitarsam 
TTITLE18=Евгения Власова - Я буду
TTITLE19=Pakito - Living on video
TTITLE20=Ю.Савичева - Мало-radio edit
TTITLE21=Flipsyde Piper - Happy Birthday
EXTD=
EXTT0=
EXTT1=
EXTT2=
EXTT3=
EXTT4=
EXTT5=
EXTT6=
EXTT7=
EXTT8=
EXTT9=
EXTT10=
EXTT11=
EXTT12=
EXTT13=
EXTT14=
EXTT15=
EXTT16=
EXTT17=
EXTT18=
EXTT19=
EXTT20=
EXTT21=
PLAYORDER=
